<?xml version="1.0" encoding="UTF-8" standalone="no"?>
<svg
   xmlns:dc="http://purl.org/dc/elements/1.1/"
   xmlns:cc="http://creativecommons.org/ns#"
   xmlns:rdf="http://www.w3.org/1999/02/22-rdf-syntax-ns#"
   xmlns:svg="http://www.w3.org/2000/svg"
   xmlns="http://www.w3.org/2000/svg"
   xmlns:sodipodi="http://sodipodi.sourceforge.net/DTD/sodipodi-0.dtd"
   xmlns:inkscape="http://www.inkscape.org/namespaces/inkscape"
   version="1.1"
   id="svg2"
   xml:space="preserve"
   width="680.32001"
   height="216"
   viewBox="0 0 680.32001 216"
   sodipodi:docname="Vector_Entity-Framework-Core-Logo_2Colors_Boxed_RGB.eps"><metadata
     id="metadata8"><rdf:RDF><cc:Work
         rdf:about=""><dc:format>image/svg+xml</dc:format><dc:type
           rdf:resource="http://purl.org/dc/dcmitype/StillImage" /></cc:Work></rdf:RDF></metadata><defs
     id="defs6" /><sodipodi:namedview
     pagecolor="#ffffff"
     bordercolor="#666666"
     borderopacity="1"
     objecttolerance="10"
     gridtolerance="10"
     guidetolerance="10"
     inkscape:pageopacity="0"
     inkscape:pageshadow="2"
     inkscape:window-width="640"
     inkscape:window-height="480"
     id="namedview4" /><g
     id="g10"
     inkscape:groupmode="layer"
     inkscape:label="ink_ext_XXXXXX"
     transform="matrix(1.3333333,0,0,-1.3333333,0,216)"><g
       id="g12"
       transform="scale(0.1)"><path
         d="M 5100,0 H 0 V 1620 H 5100 V 0"
         style="fill:#5e2a7e;fill-opacity:1;fill-rule:nonzero;stroke:none"
         id="path14" /><path
         d="M 466.254,639.25 V 961.219 H 623.199 V 933.82 H 496.117 V 815.723 H 613.773 V 788.781 H 496.117 V 666.418 h 134.27 V 639.25 H 466.254"
         style="fill:#ffffff;fill-opacity:1;fill-rule:nonzero;stroke:none"
         id="path16" /><path
         d="m 847.945,639.25 v 132.469 c 0,51.945 -18.859,77.91 -56.574,77.91 -10.027,0 -19.316,-1.981 -27.84,-5.945 -8.535,-3.977 -15.91,-9.473 -22.121,-16.504 -6.211,-7.043 -11.074,-15.383 -14.59,-25.039 -3.523,-9.649 -5.281,-20.098 -5.281,-31.321 V 639.25 h -28.73 v 229.91 h 28.73 v -39.969 h 0.899 c 17.07,30.235 42.734,45.36 77.011,45.36 25.145,0 44.305,-8.164 57.481,-24.473 13.172,-16.316 19.754,-39.89 19.754,-70.73 V 639.25 h -28.739"
         style="fill:#ffffff;fill-opacity:1;fill-rule:nonzero;stroke:none"
         id="path18" /><path
         d="m 1044.63,641.945 c -9.88,-4.941 -20.65,-7.414 -32.33,-7.414 -37.12,0 -55.683,21.407 -55.683,64.211 v 145.274 h -40.41 v 25.144 h 40.41 v 57.93 l 28.738,9.426 V 869.16 h 59.275 V 844.016 H 985.355 V 703.234 c 0,-15.566 2.54,-26.796 7.637,-33.671 5.09,-6.895 13.688,-10.333 25.818,-10.333 8.98,0 17.59,2.696 25.82,8.086 v -25.371"
         style="fill:#ffffff;fill-opacity:1;fill-rule:nonzero;stroke:none"
         id="path20" /><path
         d="m 1092.01,639.25 v 229.91 h 28.73 V 639.25 Z m 14.14,288.066 c -5.54,0 -10.33,1.942 -14.37,5.84 -4.04,3.887 -6.06,8.828 -6.06,14.813 0,5.836 2.02,10.664 6.06,14.484 4.04,3.813 8.83,5.723 14.37,5.723 2.84,0 5.53,-0.488 8.08,-1.461 2.54,-0.973 4.75,-2.356 6.62,-4.149 1.87,-1.796 3.37,-3.933 4.5,-6.402 1.12,-2.473 1.68,-5.199 1.68,-8.195 0,-2.84 -0.53,-5.535 -1.58,-8.074 -1.04,-2.559 -2.54,-4.766 -4.49,-6.633 -1.94,-1.875 -4.15,-3.328 -6.62,-4.383 -2.47,-1.035 -5.2,-1.563 -8.19,-1.563"
         style="fill:#ffffff;fill-opacity:1;fill-rule:nonzero;stroke:none"
         id="path22" /><path
         d="m 1293.63,641.945 c -9.88,-4.941 -20.66,-7.414 -32.34,-7.414 -37.12,0 -55.68,21.407 -55.68,64.211 v 145.274 h -40.41 v 25.144 h 40.41 v 57.93 l 28.74,9.426 V 869.16 h 59.28 v -25.144 h -59.28 V 703.234 c 0,-15.566 2.54,-26.796 7.64,-33.671 5.09,-6.895 13.69,-10.333 25.82,-10.333 8.97,0 17.59,2.696 25.82,8.086 v -25.371"
         style="fill:#ffffff;fill-opacity:1;fill-rule:nonzero;stroke:none"
         id="path24" /><path
         d="m 1407.69,597.488 c -8.98,-22.457 -19.31,-39.097 -30.99,-49.957 -11.67,-10.851 -25.82,-16.281 -42.43,-16.281 -8.23,0 -15.19,0.98 -20.88,2.922 v 26.937 c 3.29,-1.199 6.62,-2.097 9.99,-2.687 3.37,-0.602 6.77,-0.902 10.22,-0.902 9.42,0 17.63,2.96 24.58,8.878 6.96,5.911 12.99,14.84 18.07,26.821 l 19.99,47.152 -88.46,228.789 h 31.88 l 65.78,-182.09 c 0.9,-2.39 1.76,-5.125 2.58,-8.191 0.82,-3.066 1.61,-6.106 2.37,-9.094 h 1.12 c 0.74,2.551 1.45,5.129 2.13,7.746 0.67,2.617 1.61,5.508 2.81,8.641 l 69.82,182.988 h 30.32 l -108.9,-271.672"
         style="fill:#ffffff;fill-opacity:1;fill-rule:nonzero;stroke:none"
         id="path26" /><path
         d="M 1670.87,933.82 V 812.578 h 117.66 V 785.422 H 1670.87 V 639.25 h -29.86 v 321.969 h 156.94 V 933.82 h -127.08"
         style="fill:#ffffff;fill-opacity:1;fill-rule:nonzero;stroke:none"
         id="path28" /><path
         d="m 1969.49,839.746 c -6.74,4.942 -15.42,7.414 -26.05,7.414 -7.63,0 -14.36,-1.465 -20.2,-4.375 -5.84,-2.93 -10.97,-6.855 -15.38,-11.797 -4.42,-4.941 -8.17,-10.664 -11.23,-17.168 -3.07,-6.515 -5.54,-13.293 -7.41,-20.324 -1.87,-7.039 -3.22,-14.148 -4.04,-21.328 -0.83,-7.188 -1.24,-13.992 -1.24,-20.438 V 639.25 h -28.51 v 229.91 h 28.51 v -49.168 h 0.9 c 2.69,8.379 6.1,15.899 10.22,22.559 4.11,6.66 8.87,12.273 14.25,16.844 5.39,4.562 11.27,8.039 17.63,10.441 6.37,2.391 13.06,3.594 20.1,3.594 4.63,0 8.79,-0.305 12.46,-0.899 3.66,-0.605 6.99,-1.504 9.99,-2.695 v -30.09"
         style="fill:#ffffff;fill-opacity:1;fill-rule:nonzero;stroke:none"
         id="path30" /><path
         d="m 2084.45,750.832 c -10.33,-1.496 -19.16,-3.359 -26.5,-5.605 -7.33,-2.247 -13.39,-5.274 -18.19,-9.102 -4.78,-3.809 -8.3,-8.527 -10.55,-14.141 -2.24,-5.605 -3.37,-12.539 -3.37,-20.761 0,-6.145 1.09,-11.836 3.26,-17.071 2.16,-5.234 5.31,-9.765 9.43,-13.574 4.11,-3.828 9.13,-6.777 15.04,-8.879 5.92,-2.097 12.62,-3.144 20.1,-3.144 10.17,0 19.53,1.945 28.06,5.84 8.54,3.898 15.9,9.277 22.12,16.164 6.21,6.882 11.08,15.117 14.59,24.707 3.52,9.57 5.28,19.98 5.28,31.199 v 22.687 z m 59.27,-111.582 v 40.859 h -0.9 c -7.48,-14.668 -17.7,-26.035 -30.65,-34.121 -12.95,-8.086 -27.58,-12.129 -43.89,-12.129 -11.08,0 -21.07,1.571 -29.97,4.715 -8.91,3.145 -16.47,7.598 -22.68,13.36 -6.21,5.761 -11.01,12.687 -14.38,20.773 -3.35,8.086 -5.04,16.981 -5.04,26.719 0,20.801 6.43,37.383 19.3,49.726 12.87,12.344 32.34,20.391 58.38,24.141 l 69.83,10.098 c 0,44.16 -17.14,66.238 -51.42,66.238 -26.79,0 -51.64,-9.813 -74.54,-29.414 v 31.437 c 4.79,3.438 10.21,6.543 16.28,9.317 6.06,2.773 12.46,5.156 19.2,7.187 6.74,2.012 13.65,3.594 20.77,4.707 7.1,1.133 14.03,1.688 20.76,1.688 25.6,0 44.94,-7.188 58.05,-21.551 13.09,-14.375 19.64,-35.781 19.64,-64.219 V 639.25 h -28.74"
         style="fill:#ffffff;fill-opacity:1;fill-rule:nonzero;stroke:none"
         id="path32" /><path
         d="m 2530.57,639.25 v 135.156 c 0,13.77 -1.04,25.41 -3.14,34.922 -2.09,9.5 -5.35,17.246 -9.77,23.242 -4.41,5.977 -10.03,10.321 -16.83,13.016 -6.82,2.695 -14.94,4.043 -24.37,4.043 -8.38,0 -16.31,-1.981 -23.8,-5.945 -7.48,-3.977 -14.03,-9.434 -19.64,-16.399 -5.61,-6.961 -10.03,-15.156 -13.25,-24.578 -3.22,-9.434 -4.82,-19.609 -4.82,-30.539 V 639.25 h -28.74 v 138.086 c 0,48.191 -18.49,72.293 -55.46,72.293 -8.54,0 -16.47,-1.902 -23.8,-5.731 -7.34,-3.808 -13.73,-9.16 -19.2,-16.054 -5.46,-6.875 -9.73,-15.156 -12.79,-24.805 -3.08,-9.648 -4.61,-20.312 -4.61,-31.992 V 639.25 h -28.73 v 229.91 h 28.73 v -37.273 h 0.9 c 16.17,28.437 39.74,42.664 70.73,42.664 8.07,0 15.71,-1.238 22.9,-3.699 7.18,-2.481 13.61,-5.918 19.3,-10.332 5.69,-4.415 10.59,-9.688 14.71,-15.832 4.11,-6.141 7.22,-12.879 9.32,-20.204 8.08,16.309 18.59,28.731 31.54,37.266 12.95,8.535 27.58,12.801 43.9,12.801 50.44,0 75.66,-31.141 75.66,-93.406 V 639.25 h -28.74"
         style="fill:#ffffff;fill-opacity:1;fill-rule:nonzero;stroke:none"
         id="path34" /><path
         d="m 2778.68,774.191 c -0.45,23.946 -6.15,42.5 -17.07,55.684 -10.93,13.164 -26.13,19.754 -45.58,19.754 -9.73,0 -18.75,-1.727 -27.05,-5.164 -8.31,-3.449 -15.61,-8.418 -21.9,-14.934 -6.28,-6.511 -11.48,-14.441 -15.6,-23.797 -4.12,-9.355 -7,-19.863 -8.64,-31.543 z m -136.52,-25.156 c 0.15,-14.062 2.02,-26.711 5.62,-37.941 3.59,-11.219 8.75,-20.731 15.49,-28.504 6.73,-7.793 14.93,-13.742 24.59,-17.852 9.64,-4.121 20.53,-6.183 32.66,-6.183 25.89,0 50.37,9.054 73.42,27.168 v -28.289 c -22,-15.715 -48.64,-23.575 -79.93,-23.575 -15.42,0 -29.42,2.696 -41.98,8.086 -12.58,5.391 -23.28,13.203 -32.11,23.457 -8.83,10.254 -15.65,22.871 -20.43,37.832 -4.8,14.969 -7.19,32.032 -7.19,51.192 0,17.215 2.62,33.164 7.86,47.832 5.24,14.668 12.49,27.344 21.78,38.047 9.28,10.703 20.28,19.09 33.01,25.156 12.71,6.055 26.64,9.09 41.75,9.09 14.83,0 27.92,-2.586 39.3,-7.742 11.37,-5.168 20.91,-12.539 28.62,-22.121 7.71,-9.579 13.59,-21.258 17.63,-35.028 4.04,-13.769 6.07,-29.18 6.07,-46.25 v -14.375 h -166.16"
         style="fill:#ffffff;fill-opacity:1;fill-rule:nonzero;stroke:none"
         id="path36" /><path
         d="m 3072.35,639.25 h -28.73 l -48.73,168.848 c -1.5,5.234 -2.69,12.039 -3.59,20.429 h -0.89 c -0.31,-2.246 -0.8,-5.019 -1.47,-8.312 -0.67,-3.289 -1.76,-7.188 -3.25,-11.668 L 2932.03,639.25 h -28.07 l -69.6,229.91 h 30.76 l 50.52,-178.269 c 1.49,-5.235 2.54,-11.895 3.13,-19.981 h 1.8 c 0.3,2.695 0.79,5.762 1.47,9.199 0.67,3.446 1.6,7.11 2.8,11.004 l 55.68,178.047 h 23.8 l 49.85,-178.496 c 1.34,-5.086 2.47,-11.746 3.36,-19.98 h 1.8 c -0.15,2.539 0.15,5.5 0.9,8.867 0.74,3.371 1.72,7.07 2.92,11.113 l 50.52,178.496 h 28.96 l -70.28,-229.91"
         style="fill:#ffffff;fill-opacity:1;fill-rule:nonzero;stroke:none"
         id="path38" /><path
         d="m 3281.38,849.629 c -12.58,0 -23.95,-2.176 -34.13,-6.512 -10.17,-4.336 -18.9,-10.664 -26.15,-18.965 -7.27,-8.32 -12.84,-18.496 -16.73,-30.547 -3.9,-12.05 -5.84,-25.703 -5.84,-40.976 0,-14.367 1.94,-27.316 5.84,-38.84 3.89,-11.531 9.38,-21.406 16.5,-29.637 7.1,-8.234 15.76,-14.55 25.93,-18.964 10.18,-4.426 21.55,-6.633 34.13,-6.633 12.87,0 24.25,2.14 34.12,6.398 9.89,4.277 18.27,10.477 25.15,18.641 6.88,8.156 12.09,18.144 15.61,29.972 3.51,11.817 5.28,25.293 5.28,40.411 0,30.996 -6.9,54.675 -20.67,71.062 -13.76,16.399 -33.44,24.59 -59.04,24.59 z m -2.24,-215.77 c -17.06,0 -32.38,2.852 -45.92,8.536 -13.55,5.683 -25.11,13.73 -34.69,24.14 -9.58,10.391 -16.91,22.852 -22,37.383 -5.09,14.512 -7.64,30.605 -7.64,48.262 0,19.16 2.7,36.308 8.09,51.425 5.39,15.118 13.05,27.95 23.01,38.497 9.96,10.554 21.97,18.601 36.04,24.14 14.06,5.535 29.78,8.309 47.15,8.309 16.61,0 31.58,-2.735 44.9,-8.192 13.32,-5.468 24.62,-13.359 33.91,-23.691 9.27,-10.332 16.38,-22.902 21.33,-37.715 4.94,-14.824 7.41,-31.66 7.41,-50.527 0,-17.961 -2.59,-34.317 -7.76,-49.055 -5.15,-14.746 -12.54,-27.43 -22.11,-38.055 -9.58,-10.625 -21.26,-18.867 -35.03,-24.699 -13.76,-5.84 -29.33,-8.758 -46.69,-8.758"
         style="fill:#ffffff;fill-opacity:1;fill-rule:nonzero;stroke:none"
         id="path40" /><path
         d="m 3562.71,839.746 c -6.74,4.942 -15.42,7.414 -26.04,7.414 -7.64,0 -14.37,-1.465 -20.21,-4.375 -5.84,-2.93 -10.97,-6.855 -15.38,-11.797 -4.41,-4.941 -8.16,-10.664 -11.23,-17.168 -3.07,-6.515 -5.54,-13.293 -7.4,-20.324 -1.88,-7.039 -3.23,-14.148 -4.05,-21.328 -0.83,-7.188 -1.24,-13.992 -1.24,-20.438 V 639.25 h -28.5 v 229.91 h 28.5 v -49.168 h 0.9 c 2.7,8.379 6.11,15.899 10.23,22.559 4.11,6.66 8.86,12.273 14.24,16.844 5.39,4.562 11.27,8.039 17.63,10.441 6.37,2.391 13.06,3.594 20.1,3.594 4.64,0 8.79,-0.305 12.46,-0.899 3.66,-0.605 6.99,-1.504 9.99,-2.695 v -30.09"
         style="fill:#ffffff;fill-opacity:1;fill-rule:nonzero;stroke:none"
         id="path42" /><path
         d="m 3739.86,639.25 -105.75,112.031 h -0.9 V 639.25 h -28.73 v 340.375 h 28.73 V 762.063 h 0.9 l 100.36,107.097 h 37.5 L 3664.19,758.02 3780.5,639.25 h -40.64"
         style="fill:#ffffff;fill-opacity:1;fill-rule:nonzero;stroke:none"
         id="path44" /><path
         d="m 4454.5,850.488 c -6.82,5.02 -15.59,7.52 -26.43,7.52 -7.74,0 -14.57,-1.485 -20.47,-4.453 -5.94,-2.942 -11.12,-6.934 -15.6,-11.934 -4.49,-5.019 -8.3,-10.84 -11.39,-17.41 -3.16,-6.613 -5.68,-13.527 -7.54,-20.648 -1.86,-7.125 -3.28,-14.325 -4.08,-21.629 -0.82,-7.293 -1.31,-14.239 -1.31,-20.743 V 647.078 h -28.89 v 233.274 h 28.89 v -49.883 h 0.95 c 2.74,8.476 6.2,16.113 10.38,22.871 4.17,6.765 8.98,12.461 14.47,17.098 5.47,4.621 11.41,8.167 17.87,10.597 6.42,2.41 13.26,3.633 20.35,3.633 4.76,0 8.97,-0.313 12.68,-0.918 3.71,-0.605 7.09,-1.504 10.12,-2.715 v -30.547"
         style="fill:#ffffff;fill-opacity:1;fill-rule:nonzero;stroke:none"
         id="path46" /><path
         d="m 4647.81,783.984 c -0.45,24.278 -6.26,43.125 -17.36,56.496 -11.04,13.368 -26.47,20.047 -46.22,20.047 -9.85,0 -18.99,-1.738 -27.47,-5.234 -8.42,-3.523 -15.81,-8.574 -22.18,-15.156 -6.39,-6.621 -11.64,-14.649 -15.82,-24.16 -4.2,-9.473 -7.11,-20.137 -8.77,-31.993 z M 4509.3,758.477 c 0.12,-14.278 2.01,-27.11 5.7,-38.497 3.63,-11.406 8.87,-21.074 15.7,-28.933 6.84,-7.922 15.16,-13.957 24.95,-18.117 9.8,-4.18 20.84,-6.242 33.12,-6.242 26.32,0 51.13,9.164 74.51,27.531 v -28.692 c -22.32,-15.957 -49.33,-23.918 -81.11,-23.918 -15.6,0 -29.86,2.739 -42.59,8.204 -12.77,5.46 -23.61,13.378 -32.54,23.8 -8.98,10.403 -15.9,23.184 -20.74,38.379 -4.88,15.176 -7.27,32.481 -7.27,51.953 0,17.461 2.61,33.645 7.91,48.516 5.35,14.894 12.73,27.754 22.15,38.594 9.39,10.898 20.56,19.383 33.45,25.539 12.92,6.133 27.05,9.207 42.35,9.207 15.1,0 28.34,-2.625 39.92,-7.871 11.54,-5.235 21.23,-12.715 29,-22.422 7.81,-9.727 13.85,-21.582 17.9,-35.528 4.12,-13.984 6.17,-29.609 6.17,-46.933 v -14.57 H 4509.3"
         style="fill:#ffffff;fill-opacity:1;fill-rule:nonzero;stroke:none"
         id="path48" /><path
         d="m 4008.01,610.199 c -43.89,43.903 -64.93,101.985 -63.74,159.801 -1.19,60 19.85,115.043 63.74,158.949 86.16,86.131 225.65,85.601 311.79,-0.551 l 18.53,19.247 c -48.29,48.285 -112.06,72.785 -175.49,72.785 -63.41,0 -126.84,-23.707 -175.13,-71.989 C 3938.79,899.52 3914.76,830 3915.4,770 c -0.64,-65.082 23.39,-130.375 72.31,-179.301 48.29,-48.277 111.72,-72.41 175.13,-72.41 63.43,0 127.2,24.293 175.49,72.57 l -18.53,19.032 c -86.14,-86.153 -225.63,-85.832 -311.79,0.308"
         style="fill:#ffffff;fill-opacity:1;fill-rule:nonzero;stroke:none"
         id="path50" /><path
         d="m 4160.21,680.84 c -12.33,0 -23.39,2.09 -33.19,6.191 -9.8,4.102 -18.18,9.942 -25.06,17.442 -6.96,7.5 -12.21,16.523 -15.89,27.011 -3.68,10.489 -5.56,22.129 -5.56,34.911 0,13.839 1.96,26.222 5.86,37.191 3.9,10.906 9.43,20.164 16.62,27.82 7.19,7.637 15.9,13.418 26.06,17.442 10.17,4.004 21.51,5.988 34.08,5.988 12.01,0 22.84,-1.965 32.46,-5.91 9.65,-3.965 17.79,-9.649 24.49,-17.129 6.71,-7.461 11.86,-16.563 15.46,-27.266 3.54,-10.703 5.32,-22.89 5.32,-36.504 0,-13 -1.86,-24.812 -5.57,-35.449 -3.74,-10.683 -9.06,-19.883 -16.01,-27.539 -6.92,-7.676 -15.34,-13.621 -25.29,-17.82 -9.98,-4.25 -21.2,-6.379 -33.78,-6.379"
         style="fill:#4cc5e2;fill-opacity:1;fill-rule:nonzero;stroke:none"
         id="path52" /></g></g></svg>
